<svg width="62" height="62" viewBox="0 0 62 62" fill="none" xmlns="http://www.w3.org/2000/svg">
<g id="info-circle">
<circle id="Ellipse 5" cx="31" cy="31" r="29.5935" transform="rotate(-2.79224 31 31)" fill="#080709"/>
<path id="Vector" d="M31.1282 6.78711C17.686 6.78711 6.78723 17.6898 6.78723 31.1281C6.78723 44.5742 17.686 55.4691 31.1282 55.4691C44.5704 55.4691 55.4692 44.5742 55.4692 31.1281C55.4692 17.6898 44.5704 6.78711 31.1282 6.78711ZM31.1282 17.5835C33.4049 17.5835 35.2505 19.4291 35.2505 21.7058C35.2505 23.9824 33.4049 25.828 31.1282 25.828C28.8515 25.828 27.0059 23.9824 27.0059 21.7058C27.0059 19.4291 28.8515 17.5835 31.1282 17.5835ZM36.6246 42.5134C36.6246 43.1638 36.0972 43.6912 35.4468 43.6912H26.8096C26.1592 43.6912 25.6319 43.1638 25.6319 42.5134V40.1578C25.6319 39.5074 26.1592 38.98 26.8096 38.98H27.9874V32.6985H26.8096C26.1592 32.6985 25.6319 32.1711 25.6319 31.5207V29.1651C25.6319 28.5147 26.1592 27.9873 26.8096 27.9873H33.0912C33.7416 27.9873 34.269 28.5147 34.269 29.1651V38.98H35.4468C36.0972 38.98 36.6246 39.5074 36.6246 40.1578V42.5134Z" fill="#FFB703"/>
</g>
</svg>
