<svg width="143" height="179" viewBox="0 0 143 179" fill="none" xmlns="http://www.w3.org/2000/svg">
<path id="Vector" d="M127.679 78.3125H120.018V53.1406C120.018 23.8434 98.2487 0 71.5 0C44.7513 0 22.9821 23.8434 22.9821 53.1406V78.3125H15.3214C6.86272 78.3125 0 85.8291 0 95.0938V162.219C0 171.483 6.86272 179 15.3214 179H127.679C136.137 179 143 171.483 143 162.219V95.0938C143 85.8291 136.137 78.3125 127.679 78.3125ZM94.4821 78.3125H48.5179V53.1406C48.5179 39.2611 58.8279 27.9688 71.5 27.9688C84.1721 27.9688 94.4821 39.2611 94.4821 53.1406V78.3125Z" fill="white" fill-opacity="0.8"/>
</svg>
